<svg width="20" height="13" viewBox="0 0 20 13" fill="none" xmlns="http://www.w3.org/2000/svg">
<path fill-rule="evenodd" clip-rule="evenodd" d="M19.2 1.68187C19.2 1.04883 18.7224 0.535645 18.1333 0.535645H17.0667C16.4776 0.535645 16 1.04883 16 1.68187V11.6158C16 12.2489 16.4776 12.7621 17.0667 12.7621H18.1333C18.7224 12.7621 19.2 12.2489 19.2 11.6158V1.68187ZM11.7659 2.98093H12.8326C13.4217 2.98093 13.8992 3.50643 13.8992 4.15466V11.5883C13.8992 12.2366 13.4217 12.7621 12.8326 12.7621H11.7659C11.1768 12.7621 10.6992 12.2366 10.6992 11.5883V4.15466C10.6992 3.50643 11.1768 2.98093 11.7659 2.98093ZM7.43411 5.62997H6.36745C5.77834 5.62997 5.30078 6.16216 5.30078 6.81865V11.5734C5.30078 12.2299 5.77834 12.762 6.36745 12.762H7.43411C8.02322 12.762 8.50078 12.2299 8.50078 11.5734V6.81865C8.50078 6.16216 8.02322 5.62997 7.43411 5.62997ZM2.13333 8.07527H1.06667C0.477563 8.07527 0 8.59985 0 9.24697V11.5904C0 12.2375 0.477563 12.7621 1.06667 12.7621H2.13333C2.72244 12.7621 3.2 12.2375 3.2 11.5904V9.24697C3.2 8.59985 2.72244 8.07527 2.13333 8.07527Z" fill="white"/>
</svg>
